<?xml version="1.0" encoding="UTF-8"?>
<!DOCTYPE svg PUBLIC "-//W3C//DTD SVG 1.1//EN" "http://www.w3.org/Graphics/SVG/1.1/DTD/svg11.dtd">
<!-- Creator: CorelDRAW 2021 (64-Bit) -->
<svg xmlns="http://www.w3.org/2000/svg" xml:space="preserve" width="43.3493mm" height="25.7143mm" version="1.1" style="shape-rendering:geometricPrecision; text-rendering:geometricPrecision; image-rendering:optimizeQuality; fill-rule:evenodd; clip-rule:evenodd"
viewBox="0 0 4334.94 2571.44"
 xmlns:xlink="http://www.w3.org/1999/xlink"
 xmlns:xodm="http://www.corel.com/coreldraw/odm/2003">
 <defs>
  <style type="text/css">
   <![CDATA[
    .fil0 {fill:#008BAF;fill-rule:nonzero}
   ]]>
  </style>
 </defs>
 <g id="Ebene_x0020_1">
  <metadata id="CorelCorpID_0Corel-Layer"/>
  <g id="_1583452679136">
   <polygon class="fil0" points="557.76,2036.21 988.36,2036.21 988.36,1605.63 557.76,1605.63 "/>
   <polygon class="fil0" points="1115.53,2036.21 1546.13,2036.21 1546.13,1605.63 1115.53,1605.63 "/>
   <polygon class="fil0" points="1673.29,2036.21 2103.88,2036.21 2103.88,1605.63 1673.29,1605.63 "/>
   <polygon class="fil0" points="2231.05,2036.21 2661.65,2036.21 2661.65,1605.63 2231.05,1605.63 "/>
   <polygon class="fil0" points="2788.82,2036.21 3219.42,2036.21 3219.42,1605.63 2788.82,1605.63 "/>
   <polygon class="fil0" points="3346.58,2036.21 3777.19,2036.21 3777.19,1605.63 3346.58,1605.63 "/>
   <polygon class="fil0" points="1115.53,1501.01 1546.13,1501.01 1546.13,1070.44 1115.53,1070.44 "/>
   <polygon class="fil0" points="1673.29,1501.01 2103.88,1501.01 2103.88,1070.44 1673.29,1070.44 "/>
   <polygon class="fil0" points="2231.05,1501.01 2661.65,1501.01 2661.65,1070.44 2231.05,1070.44 "/>
   <polygon class="fil0" points="2788.82,1501.01 3219.42,1501.01 3219.42,1070.44 2788.82,1070.44 "/>
   <polygon class="fil0" points="1952.16,430.58 2382.76,430.58 2382.76,0 1952.16,0 "/>
   <polygon class="fil0" points="-0,2571.44 430.62,2571.44 430.62,2140.85 -0,2140.85 "/>
   <polygon class="fil0" points="557.76,2571.44 988.36,2571.44 988.36,2140.85 557.76,2140.85 "/>
   <polygon class="fil0" points="1115.53,2571.44 1546.13,2571.44 1546.13,2140.85 1115.53,2140.85 "/>
   <polygon class="fil0" points="1673.29,2571.44 2103.88,2571.44 2103.88,2140.85 1673.29,2140.85 "/>
   <polygon class="fil0" points="2231.05,2571.44 2661.65,2571.44 2661.65,2140.85 2231.05,2140.85 "/>
   <polygon class="fil0" points="2788.82,2571.44 3219.42,2571.44 3219.42,2140.85 2788.82,2140.85 "/>
   <polygon class="fil0" points="3346.58,2571.44 3777.19,2571.44 3777.19,2140.85 3346.58,2140.85 "/>
   <polygon class="fil0" points="3904.34,2571.44 4334.94,2571.44 4334.94,2140.85 3904.34,2140.85 "/>
   <polygon class="fil0" points="1673.29,965.8 2103.88,965.8 2103.88,535.22 1673.29,535.22 "/>
   <polygon class="fil0" points="2231.05,965.8 2661.65,965.8 2661.65,535.22 2231.05,535.22 "/>
  </g>
 </g>
</svg>
